<svg xmlns="http://www.w3.org/2000/svg" viewBox="0 0 1200 675" role="img" aria-labelledby="t"><title id="t">Abstract cloud transformation illustration</title><rect width="1200" height="675" fill="#f4f7f6"/><path d="M0 510C280 330 470 650 760 420s370-90 440-190v445H0z" fill="#e4f5f4"/><g fill="none" stroke="#10233f" stroke-width="8"><path d="M380 430c-85 0-115-102-48-144 13-115 185-138 228-32 103-8 130 151 27 176z"/><path d="M485 305v205M430 455l55 55 55-55"/></g><g fill="#00878a"><circle cx="760" cy="260" r="34"/><circle cx="900" cy="355" r="34"/><circle cx="760" cy="450" r="34"/></g><path d="M620 355h246M760 294v122" stroke="#c99a3d" stroke-width="7" fill="none"/></svg>
